Coordinates
version=1
nRows=14
nColumns=40
inDegrees=yes

Units are S.I. units (second, meters, Newtons, ...)
Angles are in degrees.

endheader
time	pelvis_tilt	pelvis_list	pelvis_rotation	pelvis_tx	pelvis_ty	pelvis_tz	hip_flexion_r	hip_adduction_r	hip_rotation_r	knee_angle_r	knee_angle_r_beta	ankle_angle_r	subtalar_angle_r	mtp_angle_r	hip_flexion_l	hip_adduction_l	hip_rotation_l	knee_angle_l	knee_angle_l_beta	ankle_angle_l	subtalar_angle_l	mtp_angle_l	lumbar_extension	lumbar_bending	lumbar_rotation	arm_flex_r	arm_add_r	arm_rot_r	elbow_flex_r	pro_sup_r	wrist_flex_r	wrist_dev_r	arm_flex_l	arm_add_l	arm_rot_l	elbow_flex_l	pro_sup_l	wrist_flex_l	wrist_dev_l
      0.00000000	     -3.18756729	     -0.47574317	     -2.84725968	     -0.98463447	      0.88425692	      1.54094441	     -0.02868482	     -5.41373645	    -24.92285275	    -19.91349485	     -0.34755605	     11.57273187	      3.29583491	     -1.92247746	     32.33680947	      6.83868525	     14.55798917	    -31.91204133	     -0.55697019	      6.35457590	     13.14619201	     -0.89931096	     -5.51393172	      3.50397095	     -0.57016536	      9.83459649	    -13.75709178	    -21.98199338	     35.73007218	     89.95437384	      0.00000000	      0.00000000	     -5.47814241	      8.03297137	     16.85761465	     25.05349476	     89.95437384	      0.00000000	      0.00000000
      0.01000000	     -3.41557603	     -0.68822653	     -2.48604491	     -0.97806316	      0.88338823	      1.54053553	     -0.39941889	     -5.15854296	    -25.18873074	    -19.79048947	     -0.34540920	     11.56086852	      3.31909355	     -1.91097812	     32.70716373	      6.98260440	     14.79139075	    -30.13380733	     -0.52593415	      6.45273747	     12.56134277	     -0.93977417	     -5.31823057	      3.65873170	     -0.41154373	     10.12359653	    -13.91656982	    -22.08225377	     35.64455010	     89.95437384	      0.00000000	      0.00000000	     -5.71940104	      7.99446493	     17.06449981	     24.59018255	     89.95437384	      0.00000000	      0.00000000
      0.02000000	     -3.59534392	     -0.80994112	     -2.15882660	     -0.97126851	      0.88249713	      1.53996711	     -0.81583176	     -5.03040843	    -25.48289094	    -19.65991938	     -0.34313032	     11.53220993	      3.30654584	     -1.90000069	     32.94460146	      7.05731924	     15.13640906	    -28.44790744	     -0.49650965	      6.61277070	     11.71730189	     -1.05428734	     -5.13311118	      3.70122186	     -0.30043611	     10.42626512	    -14.05968024	    -22.11113656	     35.46659422	     89.95437384	      0.00000000	      0.00000000	     -6.00219376	      7.92981440	     17.30466080	     24.19213759	     89.95437384	      0.00000000	      0.00000000
      0.03000000	     -3.78737845	     -0.99807622	     -1.77608943	     -0.96453882	      0.88141412	      1.53929383	     -1.16244520	     -4.84150369	    -25.73021085	    -19.67799396	     -0.34344578	     11.61152794	      3.20177944	     -1.89815972	     33.47748019	      7.27009767	     15.61094535	    -27.58452514	     -0.48144079	      6.74003498	     11.53207972	     -1.05627846	     -4.97375432	      3.79600668	     -0.16974633	     10.59603695	    -14.21133645	    -22.14800973	     35.43599547	     89.95437384	      0.00000000	      0.00000000	     -6.32353364	      7.94759924	     17.35869859	     24.03146187	     89.95437384	      0.00000000	      0.00000000
      0.04000000	     -3.96275964	     -1.04691029	     -1.50355506	     -0.95734322	      0.88057693	      1.53840008	     -1.52316809	     -4.84985961	    -25.88273315	    -19.70782613	     -0.34396645	     11.38966679	      3.13400046	     -1.85965293	     33.50172571	      7.17376662	     15.57779710	    -26.01302908	     -0.45401301	      6.45049423	     10.02389069	     -1.25116359	     -4.73583338	      3.73638215	     -0.07057942	     10.92689280	    -14.29411758	    -22.24939494	     35.02661838	     89.95437384	      0.00000000	      0.00000000	     -6.52952885	      7.86086229	     17.68073320	     23.45656971	     89.95437384	      0.00000000	      0.00000000
      0.05000000	     -3.83518730	     -1.10247892	     -1.31589487	     -0.94963606	      0.87997406	      1.53771672	     -2.26817467	     -4.87382568	    -26.23181269	    -19.67092152	     -0.34332235	     11.32507644	      3.32488302	     -1.91200050	     33.40744501	      7.43186886	     16.71830918	    -25.31336851	     -0.44180163	      6.12847717	      8.31075064	     -1.85309345	     -4.82901829	      3.64398757	      0.02506894	     11.18564757	    -14.31432364	    -22.30737402	     34.81586030	     89.95437384	      0.00000000	      0.00000000	     -6.65614573	      7.72226213	     18.62460470	     22.81378265	     89.95437384	      0.00000000	      0.00000000
      0.06000000	     -4.01818711	     -1.27196027	     -1.11029799	     -0.94203127	      0.87879961	      1.53679881	     -2.58308075	     -4.75934656	    -26.26692194	    -19.79989433	     -0.34557335	     11.32200492	      3.20578051	     -1.90390646	     33.72772371	      7.56953407	     16.95052529	    -24.92578323	     -0.43503699	      6.15173286	      8.25372850	     -1.84908513	     -4.56640291	      3.68438742	      0.16391734	     11.23881608	    -14.40010716	    -22.28334027	     34.75392707	     89.95437384	      0.00000000	      0.00000000	     -6.99479953	      7.70637754	     18.59750452	     22.52751048	     89.95437384	      0.00000000	      0.00000000
      0.07000000	     -4.14424308	     -1.37707026	     -0.97446108	     -0.93409891	      0.87777912	      1.53574016	     -2.94308898	     -4.74825853	    -26.15323900	    -19.98111838	     -0.34873630	     11.25414102	      3.05628743	     -1.88900069	     33.87693309	      7.61447293	     17.00789149	    -24.67317790	     -0.43062819	      5.97548728	      8.11685682	     -1.85331592	     -4.31560567	      3.65939800	      0.33390595	     11.29387865	    -14.46379555	    -22.28013733	     34.57469931	     89.95437384	      0.00000000	      0.00000000	     -7.23372498	      7.67808584	     18.59814199	     22.00046670	     89.95437384	      0.00000000	      0.00000000
      0.08000000	     -4.26073639	     -1.42633743	     -0.89235710	     -0.92603958	      0.87660402	      1.53463189	     -3.21845128	     -4.82896582	    -25.82949267	    -20.36510242	     -0.35543809	     11.03613199	      2.92258311	     -1.85816437	     34.04491372	      7.60229955	     16.77360730	    -24.78673805	     -0.43261019	      5.82124504	      7.92981358	     -1.82183906	     -4.08882592	      3.54442700	      0.49471812	     11.17362455	    -14.47538762	    -22.21553777	     34.70095122	     89.95437384	      0.00000000	      0.00000000	     -7.67643668	      7.66723037	     18.57498443	     21.93758904	     89.95437384	      0.00000000	      0.00000000
      0.09000000	     -4.22949868	     -1.49932202	     -0.81018605	     -0.91743788	      0.87580878	      1.53327072	     -3.79933723	     -4.89144158	    -25.84356051	    -20.48070585	     -0.35745575	     11.00940310	      2.70505849	     -1.83416673	     33.84477390	      7.55368744	     16.57530213	    -24.83033639	     -0.43337112	      5.91189120	      7.95558458	     -1.85074923	     -3.91354810	      3.48144721	      0.68037065	     11.17464308	    -14.50632397	    -22.28432671	     34.37651604	     89.95437384	      0.00000000	      0.00000000	     -7.68295061	      7.63085175	     18.62747404	     20.93920120	     89.95437384	      0.00000000	      0.00000000
      0.10000000	     -4.33879590	     -1.51957361	     -0.81673275	     -0.90875071	      0.87468181	      1.53200487	     -4.05476881	     -5.05291729	    -25.39407684	    -20.95602285	     -0.36575160	     10.69169647	      2.58024110	     -1.79341399	     33.80794081	      7.50018949	     16.11279938	    -25.17914025	     -0.43945890	      5.67499126	      7.72751014	     -1.81293722	     -3.61018602	      3.32271534	      0.83135572	     10.91834416	    -14.44286230	    -22.20131109	     34.56058263	     89.95437384	      0.00000000	      0.00000000	     -8.19689367	      7.60307395	     18.61068595	     20.94704025	     89.95437384	      0.00000000	      0.00000000
      0.11000000	     -3.95714755	     -1.48982602	     -0.64848591	     -0.89963333	      0.87446712	      1.53031717	     -5.11507497	     -5.17677871	    -25.25769729	    -20.88779423	     -0.36456078	     10.05211766	      2.18471964	     -1.64623152	     33.18811432	      7.13973474	     15.08601906	    -25.69081032	     -0.44838923	      5.49593185	      8.55266680	     -1.94561772	     -3.84488368	      3.10364792	      0.98143921	     10.64618862	    -14.34603484	    -22.56068014	     34.64934351	     89.95437384	      0.00000000	      0.00000000	     -7.87663152	      7.53375673	     19.31932449	     19.67662460	     89.95437384	      0.00000000	      0.00000000
      0.12000000	     -4.10280632	     -1.55912647	     -0.69941850	     -0.89040915	      0.87318492	      1.52869616	     -5.33600201	     -5.33537836	    -24.82460848	    -21.38187943	     -0.37318420	      9.78004435	      2.07033831	     -1.61340773	     33.00017378	      7.07109477	     14.67706490	    -26.12098869	     -0.45589726	      5.21524262	      8.34506239	     -1.89507990	     -3.42290839	      3.00907951	      1.07919736	     10.30592637	    -14.27333266	    -22.45421196	     34.80485318	     89.95437384	      0.00000000	      0.00000000	     -8.46049869	      7.47906591	     19.27681739	     19.72147997	     89.95437384	      0.00000000	      0.00000000
      0.13000000	     -3.95007407	     -1.60322935	     -0.57236517	     -0.88113218	      0.87240498	      1.52692130	     -5.97057475	     -5.47500751	    -24.65957951	    -21.70642807	     -0.37884864	      9.49276957	      1.80256025	     -1.55163444	     32.86838169	      7.04266553	     14.81791475	    -27.27599135	     -0.47605586	      4.20155038	      9.29267495	     -1.67196499	     -3.34332386	      2.84565019	      1.12546654	      9.95123571	    -14.20130918	    -22.30359504	     34.83981038	     89.95437384	      0.00000000	      0.00000000	     -8.48158125	      7.52028836	     19.27690860	     18.95251297	     89.95437384	      0.00000000	      0.00000000
